<svg xmlns="http://www.w3.org/2000/svg" width="64" height="64" viewBox="0 0 64 64" role="img" aria-label="Sentimine">
  <defs>
    <clipPath id="orb-clip">
      <path d="M32 6c13.9 0 25.5 10.7 26.2 24.1.8 14.7-10.9 27.8-25.7 28.6C17.6 59.5 5.7 48.1 5.7 33.1 5.7 18.2 17.6 6 32 6Z"/>
    </clipPath>
    <filter id="soft-blur" x="-20%" y="-20%" width="140%" height="140%">
      <feGaussianBlur stdDeviation="2.4"/>
    </filter>
    <filter id="shadow" x="-30%" y="-30%" width="160%" height="160%">
      <feDropShadow dx="0" dy="5" stdDeviation="5" flood-color="#1f2937" flood-opacity=".18"/>
    </filter>
  </defs>
  <rect width="64" height="64" rx="14" fill="#fffdf8"/>
  <g filter="url(#shadow)">
    <path d="M32 6c13.9 0 25.5 10.7 26.2 24.1.8 14.7-10.9 27.8-25.7 28.6C17.6 59.5 5.7 48.1 5.7 33.1 5.7 18.2 17.6 6 32 6Z" fill="#f2b705"/>
    <g clip-path="url(#orb-clip)" filter="url(#soft-blur)">
      <circle cx="20" cy="17" r="22" fill="#f2b705"/>
      <circle cx="48" cy="20" r="24" fill="#2f80ed"/>
      <circle cx="33" cy="52" r="25" fill="#e23d3d"/>
      <circle cx="15" cy="45" r="16" fill="#f2b705" opacity=".65"/>
      <circle cx="52" cy="47" r="17" fill="#2f80ed" opacity=".45"/>
    </g>
  </g>
</svg>
